<svg xmlns="http://www.w3.org/2000/svg" width="20" height="18.176" viewBox="0 0 20 18.176">
  <g id="report" transform="translate(0 -16.594)">
    <g id="Group_5" data-name="Group 5" transform="translate(0 16.594)">
      <path id="Path_5" data-name="Path 5" d="M87.292,252.014a1.238,1.238,0,0,0-.316.763v3.212h1.865v-5.077c0-.247-.141-.306-.316-.131Z" transform="translate(-82.195 -237.814)" fill="#9b2450"/>
      <path id="Path_6" data-name="Path 6" d="M236.321,196.617a1.241,1.241,0,0,0-.316.763v6.256h1.865v-8.123c0-.247-.141-.305-.316-.13Z" transform="translate(-223.033 -185.461)" fill="#9b2450"/>
      <path id="Path_7" data-name="Path 7" d="M285.979,149.2a1.236,1.236,0,0,0-.316.762v8.99H287.4V148.233c0-.247-.142-.306-.316-.131Z" transform="translate(-269.962 -140.779)" fill="#9b2450"/>
      <path id="Path_8" data-name="Path 8" d="M186.7,246.285l-.186.186a1.057,1.057,0,0,0-.185.633v3.524h1.865v-5.389c0-.247-.142-.306-.316-.131Z" transform="translate(-176.083 -232.453)" fill="#9b2450"/>
      <path id="Path_9" data-name="Path 9" d="M136.966,249.274c-.175-.174-.316-.116-.316.131v5.16h1.865v-3.3a1.2,1.2,0,0,0-.3-.745l-.3-.3Z" transform="translate(-129.139 -236.39)" fill="#9b2450"/>
      <path id="Path_10" data-name="Path 10" d="M34.245,301.335l-.6.6a1.126,1.126,0,0,0-.315.67v.354h2.082v-2.346c0-.247-.141-.305-.316-.13Z" transform="translate(-31.495 -284.787)" fill="#9b2450"/>
      <path id="Path_11" data-name="Path 11" d="M19.684,23.966c.174.175.316.116.316-.131V17.451a.913.913,0,0,0-.892-.857H12.761c-.247,0-.306.142-.131.316l2.258,2.259-.921.917L9.7,24.361,7.437,22.1a.447.447,0,0,0-.632,0L.523,28.389a1.788,1.788,0,0,0,0,2.528l.044.044a1.786,1.786,0,0,0,2.527,0l4.026-4.028L9.38,29.189a.448.448,0,0,0,.632,0l7.447-7.448Z" transform="translate(0 -16.594)" fill="#9b2450"/>
    </g>
  </g>
</svg>
